<svg width="16" height="15" viewBox="0 0 16 15" fill="none" xmlns="http://www.w3.org/2000/svg">
<g clip-path="url(#clip0_78_1399)">
<path d="M0.200195 7.60698C0.20019 7.93665 0.467444 8.20392 0.797125 8.20392L12.4587 8.2041L11.056 9.56678C10.8195 9.7965 10.814 10.1744 11.0437 10.4109C11.2735 10.6474 11.6514 10.6528 11.8878 10.4231L14.3458 8.03537C14.4615 7.92296 14.5268 7.7685 14.5268 7.60719C14.5268 7.44588 14.4615 7.29142 14.3458 7.17903L11.8878 4.79127C11.6514 4.56155 11.2735 4.56702 11.0437 4.80349C10.814 5.03996 10.8195 5.41788 11.056 5.6476L12.4586 7.01024L0.797143 7.01004C0.467464 7.01004 0.2002 7.2773 0.200195 7.60698Z" fill="white"/>
</g>
<defs>
<clipPath id="clip0_78_1399">
<rect width="15" height="15" fill="white" transform="translate(0.200195)"/>
</clipPath>
</defs>
</svg>
