<svg width="18" height="15" viewBox="0 0 18 15" fill="none" xmlns="http://www.w3.org/2000/svg">
<path d="M9.16504 7.98047L3.32129 13.8242C2.8916 14.2539 2.24707 14.2539 1.86035 13.8242L0.87207 12.8789C0.485352 12.4492 0.485352 11.8047 0.87207 11.418L5.04004 7.29297L0.87207 3.125C0.485352 2.73828 0.485352 2.09375 0.87207 1.66406L1.86035 0.675781C2.24707 0.289062 2.8916 0.289062 3.32129 0.675781L9.16504 6.51953C9.55176 6.94922 9.55176 7.59375 9.16504 7.98047ZM17.415 6.51953C17.8018 6.94922 17.8018 7.59375 17.415 7.98047L11.5713 13.8242C11.1846 14.2539 10.4971 14.2539 10.1104 13.8242L9.12207 12.8789C8.73535 12.4492 8.73535 11.8047 9.12207 11.418L13.29 7.25L9.12207 3.125C8.73535 2.73828 8.73535 2.05078 9.12207 1.66406L10.1104 0.675781C10.4971 0.289062 11.1416 0.289062 11.5713 0.675781L17.415 6.51953Z" fill="white"/>
</svg>
